<svg width="18" height="18" viewBox="0 0 18 18" fill="none" xmlns="http://www.w3.org/2000/svg">
<path d="M12.1044 2.18412C13.0477 2.18683 13.9517 2.54891 14.6187 3.19127C15.2858 3.83362 15.6618 4.70407 15.6646 5.6125V12.4685C15.6618 13.377 15.2858 14.2474 14.6187 14.8898C13.9517 15.5321 13.0477 15.8942 12.1044 15.8969H4.98466C4.04129 15.8942 3.13736 15.5321 2.4703 14.8898C1.80323 14.2474 1.42723 13.377 1.42442 12.4685V5.6125C1.42723 4.70407 1.80323 3.83362 2.4703 3.19127C3.13736 2.54891 4.04129 2.18683 4.98466 2.18412H12.1044ZM12.1044 0.812988H4.98466C2.24334 0.812988 0.000549316 2.97271 0.000549316 5.6125V12.4685C0.000549316 15.1083 2.24334 17.268 4.98466 17.268H12.1044C14.8457 17.268 17.0885 15.1083 17.0885 12.4685V5.6125C17.0885 2.97271 14.8457 0.812988 12.1044 0.812988Z" fill="white"/>
<path d="M13.1724 5.61255C12.9611 5.61255 12.7546 5.55223 12.579 5.43922C12.4034 5.32622 12.2665 5.16559 12.1857 4.97767C12.1048 4.78975 12.0837 4.58296 12.1249 4.38347C12.1661 4.18397 12.2678 4.00072 12.4172 3.85689C12.5665 3.71306 12.7568 3.61511 12.964 3.57543C13.1712 3.53574 13.3859 3.55611 13.5811 3.63395C13.7762 3.71179 13.943 3.84361 14.0604 4.01273C14.1777 4.18186 14.2404 4.3807 14.2404 4.5841C14.2407 4.71924 14.2132 4.85311 14.1597 4.97802C14.1061 5.10292 14.0275 5.21641 13.9282 5.31197C13.829 5.40753 13.7111 5.48327 13.5814 5.53485C13.4517 5.58643 13.3127 5.61284 13.1724 5.61255ZM8.54451 6.29793C9.10781 6.29793 9.65846 6.45878 10.1268 6.76014C10.5952 7.06151 10.9603 7.48985 11.1758 7.991C11.3914 8.49215 11.4478 9.0436 11.3379 9.57562C11.228 10.1076 10.9567 10.5963 10.5584 10.9799C10.1601 11.3635 9.65263 11.6247 9.10014 11.7305C8.54766 11.8363 7.975 11.782 7.45458 11.5744C6.93415 11.3668 6.48934 11.0153 6.17638 10.5643C5.86343 10.1133 5.69639 9.583 5.69639 9.04056C5.6972 8.31341 5.99753 7.61626 6.53148 7.10208C7.06543 6.58791 7.78939 6.29871 8.54451 6.29793ZM8.54451 4.9268C7.69959 4.9268 6.87364 5.16806 6.17112 5.62009C5.4686 6.07212 4.92105 6.7146 4.59771 7.46629C4.27437 8.21798 4.18977 9.04512 4.35461 9.84311C4.51944 10.6411 4.92631 11.3741 5.52376 11.9494C6.12121 12.5247 6.8824 12.9165 7.71108 13.0753C8.53977 13.234 9.39872 13.1525 10.1793 12.8412C10.9599 12.5298 11.6271 12.0025 12.0965 11.326C12.5659 10.6495 12.8165 9.85418 12.8165 9.04056C12.8165 7.94952 12.3664 6.90317 11.5653 6.13169C10.7641 5.36021 9.67751 4.9268 8.54451 4.9268Z" fill="white"/>
</svg>
