<svg width="19" height="16" viewBox="0 0 19 16" fill="none" xmlns="http://www.w3.org/2000/svg">
<path d="M18.4849 2.4523C17.7981 2.75071 17.0715 2.94731 16.3279 3.03588C17.1093 2.57831 17.697 1.85138 17.9806 0.991431C17.2419 1.42343 16.4349 1.72654 15.5944 1.88778C15.2405 1.51686 14.8148 1.22178 14.3433 1.02047C13.8718 0.819173 13.3643 0.715856 12.8516 0.716803C10.7759 0.716803 9.09606 2.3722 9.09606 4.41283C9.09459 4.69667 9.12712 4.97967 9.19294 5.25578C7.7045 5.18601 6.247 4.8063 4.91371 4.14097C3.58041 3.47564 2.40068 2.53932 1.44998 1.39193C1.11645 1.9542 0.940059 2.59573 0.939246 3.24948C0.939246 4.53107 1.60789 5.66391 2.61752 6.32759C2.01934 6.3134 1.43342 6.15508 0.909494 5.86607V5.91184C0.909494 7.70455 2.20635 9.19592 3.92277 9.53539C3.6 9.62144 3.26739 9.66503 2.93335 9.66508C2.69632 9.66549 2.45983 9.6425 2.22732 9.59642C2.70449 11.0649 4.09327 12.1329 5.73836 12.1634C4.4016 13.1936 2.76041 13.7504 1.07275 13.7463C0.773179 13.7459 0.473892 13.7281 0.176392 13.6929C1.89326 14.7893 3.88899 15.3691 5.92602 15.3636C12.8436 15.3636 16.6228 9.72992 16.6228 4.84384C16.6228 4.68364 16.6186 4.52344 16.6109 4.36706C17.3445 3.84529 17.979 3.19688 18.4849 2.4523Z" fill="white"/>
</svg>
