<svg width="18" height="18" viewBox="0 0 18 18" fill="none" xmlns="http://www.w3.org/2000/svg">
<path d="M9.16645 0.36084C4.37223 0.36084 0.484924 4.24641 0.484924 9.03849C0.484924 12.5909 2.6243 15.6436 5.68221 16.9878C5.65896 16.3835 5.67833 15.6552 5.83336 14.9966C6.00002 14.2916 6.94956 10.2665 6.94956 10.2665C6.94956 10.2665 6.67051 9.71255 6.67051 8.89515C6.67051 7.609 7.41464 6.64826 8.3448 6.64826C9.13544 6.64826 9.51526 7.24097 9.51526 7.94991C9.51526 8.74407 9.00754 9.9295 8.74787 11.0297C8.53084 11.9517 9.20908 12.6994 10.1199 12.6994C11.7632 12.6994 12.8716 10.5881 12.8716 8.0855C12.8716 6.18339 11.5887 4.76165 9.25946 4.76165C6.62788 4.76165 4.98459 6.72574 4.98459 8.9184C4.98459 9.67381 5.20938 10.2084 5.55819 10.6191C5.71709 10.8089 5.74035 10.8864 5.68221 11.1033C5.63958 11.2621 5.54656 11.6457 5.50393 11.8006C5.44579 12.0214 5.26751 12.0989 5.06985 12.0176C3.85677 11.5217 3.29092 10.1968 3.29092 8.70145C3.29092 6.23762 5.37216 3.2818 9.49588 3.2818C12.8096 3.2818 14.9916 5.67977 14.9916 8.25208C14.9916 11.6573 13.0964 14.1986 10.3059 14.1986C9.36798 14.1986 8.4882 13.6911 8.1859 13.1178C8.1859 13.1178 7.68206 15.1167 7.57354 15.5041C7.39139 16.1743 7.03095 16.8406 6.70151 17.3636C7.50063 17.5992 8.3294 17.7193 9.16257 17.72C13.9568 17.72 17.8441 13.8344 17.8441 9.04236C17.8441 4.25029 13.9607 0.36084 9.16645 0.36084Z" fill="white"/>
</svg>
